<svg width="151" height="38" viewBox="0 0 151 38" fill="none" xmlns="http://www.w3.org/2000/svg">
<path d="M53.728 34.744C55.744 34.744 57.216 34.12 58.144 32.872C59.104 31.624 59.584 29.96 59.584 27.88V21.16C59.584 19.08 59.104 17.416 58.144 16.168C57.216 14.92 55.744 14.296 53.728 14.296C51.712 14.296 50.224 14.92 49.264 16.168C48.336 17.416 47.872 19.08 47.872 21.16V27.88C47.872 29.96 48.336 31.624 49.264 32.872C50.224 34.12 51.712 34.744 53.728 34.744ZM53.728 37.576C51.968 37.576 50.368 37.272 48.928 36.664C47.488 36.056 46.256 35.192 45.232 34.072C44.208 32.952 43.408 31.592 42.832 29.992C42.288 28.36 42.016 26.536 42.016 24.52C42.016 22.504 42.288 20.696 42.832 19.096C43.408 17.464 44.208 16.088 45.232 14.968C46.256 13.848 47.488 12.984 48.928 12.376C50.368 11.768 51.968 11.464 53.728 11.464C55.488 11.464 57.088 11.768 58.528 12.376C59.968 12.984 61.2 13.848 62.224 14.968C63.248 16.088 64.032 17.464 64.576 19.096C65.152 20.696 65.44 22.504 65.44 24.52C65.44 26.536 65.152 28.36 64.576 29.992C64.032 31.592 63.248 32.952 62.224 34.072C61.2 35.192 59.968 36.056 58.528 36.664C57.088 37.272 55.488 37.576 53.728 37.576Z" fill="#5E239D"/>
<path d="M75.5328 7.38402C74.5088 7.38402 73.7087 7.09602 73.1328 6.52002C72.5567 5.91202 72.2688 5.14402 72.2688 4.21602V3.92802C72.2688 3.00002 72.5567 2.24802 73.1328 1.67202C73.7087 1.06402 74.5088 0.760019 75.5328 0.760019C76.5568 0.760019 77.3568 1.06402 77.9327 1.67202C78.5087 2.24802 78.7968 3.00002 78.7968 3.92802V4.21602C78.7968 5.14402 78.5087 5.91202 77.9327 6.52002C77.3568 7.09602 76.5568 7.38402 75.5328 7.38402ZM69.5807 34.408H72.8447V15.88L69.5807 15.256V13.144L78.2207 11.464V34.408H81.4847V37H69.5807V34.408Z" fill="#5E239D"/>
<path d="M85.0964 34.408H88.3604V15.88L85.0964 15.256V13.144L93.5924 11.464V15.928H93.8324C94.0244 15.384 94.3124 14.84 94.6964 14.296C95.1124 13.752 95.6084 13.272 96.1844 12.856C96.7924 12.44 97.4804 12.104 98.2484 11.848C99.0484 11.592 99.9444 11.464 100.936 11.464C103.976 11.464 106.136 12.248 107.416 13.816C108.696 15.352 109.336 17.672 109.336 20.776V34.408H112.6V37H100.792V34.408H103.96V21.064C103.96 18.984 103.56 17.464 102.76 16.504C101.96 15.544 100.696 15.064 98.9684 15.064C98.3284 15.064 97.6884 15.16 97.0484 15.352C96.4404 15.512 95.8804 15.784 95.3684 16.168C94.8884 16.52 94.4884 16.968 94.1684 17.512C93.8804 18.056 93.7364 18.712 93.7364 19.48V34.408H96.9044V37H85.0964V34.408Z" fill="#5E239D"/>
<path d="M114.72 14.008C117.024 12.056 118.464 10.072 119.04 8.05602H118.944C117.952 8.05602 117.152 7.75202 116.544 7.14402C115.968 6.50402 115.68 5.72002 115.68 4.79202V4.50402C115.68 3.57602 116 2.77602 116.64 2.10402C117.28 1.43202 118.16 1.09602 119.28 1.09602C120.4 1.09602 121.264 1.44802 121.872 2.15202C122.48 2.82402 122.784 3.64002 122.784 4.60002V5.22402C122.784 5.99202 122.656 6.79202 122.4 7.62402C122.144 8.42402 121.792 9.20802 121.344 9.97602C120.896 10.744 120.384 11.48 119.808 12.184C119.232 12.888 118.608 13.496 117.936 14.008H114.72Z" fill="#5E239D"/>
<path d="M134.695 37.576C133.159 37.576 131.767 37.288 130.519 36.712C129.271 36.104 128.215 35.24 127.351 34.12C126.487 33 125.815 31.64 125.335 30.04C124.855 28.408 124.615 26.568 124.615 24.52C124.615 22.472 124.855 20.648 125.335 19.048C125.815 17.416 126.487 16.04 127.351 14.92C128.215 13.8 129.271 12.952 130.519 12.376C131.767 11.768 133.159 11.464 134.695 11.464C136.583 11.464 138.087 11.896 139.207 12.76C140.359 13.624 141.191 14.632 141.703 15.784H141.943V4.93602L138.679 4.31202V2.20002L147.319 0.52002V33.16L150.583 33.784V35.896L141.943 37.576V33.256H141.703C141.191 34.408 140.359 35.416 139.207 36.28C138.055 37.144 136.551 37.576 134.695 37.576ZM136.375 34.12C137.079 34.12 137.767 34.024 138.439 33.832C139.111 33.608 139.703 33.288 140.215 32.872C140.759 32.456 141.175 31.96 141.463 31.384C141.783 30.808 141.943 30.152 141.943 29.416V19.624C141.943 18.888 141.783 18.232 141.463 17.656C141.175 17.08 140.759 16.584 140.215 16.168C139.703 15.752 139.111 15.448 138.439 15.256C137.767 15.032 137.079 14.92 136.375 14.92C134.551 14.92 133.095 15.544 132.007 16.792C130.919 18.04 130.375 19.768 130.375 21.976V27.064C130.375 29.272 130.919 31 132.007 32.248C133.095 33.496 134.551 34.12 136.375 34.12Z" fill="#5E239D"/>
<path fill-rule="evenodd" clip-rule="evenodd" d="M0 15.311C0 8.96945 5.14082 3.82864 11.4823 3.82864H34.0937V9.12817H11.4823C8.06767 9.12817 5.29954 11.8963 5.29954 15.311V25.2034C5.29954 28.6181 8.06767 31.3862 11.4823 31.3862H34.0937V36.6858H11.4823C5.14082 36.6858 0 31.545 0 25.2034V15.311Z" fill="#5E239D"/>
<path d="M11.7913 27.7386H32.9558C33.092 27.7387 33.2258 27.7075 33.3441 27.6481C33.4624 27.5887 33.5611 27.5032 33.6306 27.4C33.7 27.2967 33.7378 27.1793 33.7402 27.0593C33.7425 26.9393 33.7094 26.8208 33.6441 26.7155L29.1447 19.4432L33.6441 12.1709C33.7094 12.0656 33.7425 11.9471 33.7402 11.8271C33.7378 11.7071 33.7 11.5897 33.6306 11.4864C33.5611 11.3832 33.4624 11.2977 33.3441 11.2383C33.2258 11.1789 33.092 11.1478 32.9558 11.1478H11.7913C10.9597 11.1478 10.1622 11.4392 9.57417 11.9577C8.98615 12.4763 8.65581 13.1796 8.65581 13.913V24.9734C8.65581 25.7068 8.98615 26.4101 9.57417 26.9287C10.1622 27.4472 10.9597 27.7386 11.7913 27.7386Z" fill="#4CDE98"/>
</svg>
